<?xml version="1.0" encoding="UTF-8" standalone="no"?>
<!-- Created with Inkscape (http://www.inkscape.org/) -->

<svg
   xmlns:dc="http://purl.org/dc/elements/1.1/"
   xmlns:cc="http://creativecommons.org/ns#"
   xmlns:rdf="http://www.w3.org/1999/02/22-rdf-syntax-ns#"
   xmlns:svg="http://www.w3.org/2000/svg"
   xmlns="http://www.w3.org/2000/svg"
   xmlns:sodipodi="http://sodipodi.sourceforge.net/DTD/sodipodi-0.dtd"
   xmlns:inkscape="http://www.inkscape.org/namespaces/inkscape"
   id="svg2"
   sodipodi:docname="lipstick.svg"
   inkscape:export-filename="/tmp/2012-08-23-inscríbete.png"
   viewBox="0 0 1052.4 2500.0001"
   inkscape:export-xdpi="90"
   version="1.1"
   inkscape:export-ydpi="90"
   inkscape:version="0.91 r13725"
   width="1052.4"
   height="2500">
  <defs
     id="defs4">
    <filter
       id="filter4862-5"
       width="1.2434"
       y="-0.036311999"
       x="-0.12168"
       height="1.0726"
       inkscape:collect="always"
       style="color-interpolation-filters:sRGB">
      <feGaussianBlur
         id="feGaussianBlur4864-6"
         stdDeviation="3.7661955"
         inkscape:collect="always" />
    </filter>
    <filter
       id="filter4862-4"
       width="1.2434"
       y="-0.036311999"
       x="-0.12168"
       height="1.0726"
       inkscape:collect="always"
       style="color-interpolation-filters:sRGB">
      <feGaussianBlur
         id="feGaussianBlur4864-9"
         stdDeviation="3.7661955"
         inkscape:collect="always" />
    </filter>
    <filter
       id="filter4862-54"
       width="1.2434"
       y="-0.036311999"
       x="-0.12168"
       height="1.0726"
       inkscape:collect="always"
       style="color-interpolation-filters:sRGB">
      <feGaussianBlur
         id="feGaussianBlur4864-62"
         stdDeviation="3.7661955"
         inkscape:collect="always" />
    </filter>
    <filter
       id="filter4862-1"
       width="1.2434"
       y="-0.036311999"
       x="-0.12168"
       height="1.0726"
       inkscape:collect="always"
       style="color-interpolation-filters:sRGB">
      <feGaussianBlur
         id="feGaussianBlur4864-2"
         stdDeviation="3.7661955"
         inkscape:collect="always" />
    </filter>
    <filter
       id="filter4973"
       height="1.178"
       width="1.7701"
       y="-0.089010999"
       x="-0.38503999"
       inkscape:collect="always">
      <feGaussianBlur
         id="feGaussianBlur4975"
         stdDeviation="9.8905746"
         inkscape:collect="always" />
    </filter>
    <filter
       id="filter4973-3"
       width="1.7701"
       y="-0.089010999"
       x="-0.38503999"
       height="1.178"
       inkscape:collect="always"
       style="color-interpolation-filters:sRGB">
      <feGaussianBlur
         id="feGaussianBlur4975-4"
         stdDeviation="9.8905746"
         inkscape:collect="always" />
    </filter>
    <linearGradient
       id="linearGradient5010"
       y2="1530.8"
       gradientUnits="userSpaceOnUse"
       x2="1032.4"
       gradientTransform="matrix(1.2179,0,0,1.2169,-426.46,-475.03)"
       y1="1542.4"
       x1="1072.8"
       inkscape:collect="always">
      <stop
         id="stop5006"
         style="stop-color:#ececec"
         offset="0" />
      <stop
         id="stop5008"
         style="stop-color:#ececec;stop-opacity:0"
         offset="1" />
    </linearGradient>
    <filter
       id="filter3840"
       height="1.0641"
       width="1.4413"
       y="-0.032026"
       x="-0.22063001"
       inkscape:collect="always">
      <feGaussianBlur
         id="feGaussianBlur3842"
         stdDeviation="6.5957527"
         inkscape:collect="always" />
    </filter>
  </defs>
  <sodipodi:namedview
     id="base"
     bordercolor="#666666"
     inkscape:pageshadow="2"
     inkscape:window-y="1"
     pagecolor="#ffffff"
     inkscape:window-height="1035"
     inkscape:window-maximized="1"
     inkscape:zoom="46.46138"
     inkscape:window-x="4"
     showgrid="false"
     borderopacity="1.0"
     inkscape:current-layer="layer1"
     inkscape:cx="600.42736"
     inkscape:cy="5.7884831"
     inkscape:window-width="1916"
     inkscape:pageopacity="1"
     inkscape:document-units="px" />
  <g
     id="layer1"
     inkscape:label="Capa 1"
     inkscape:groupmode="layer"
     transform="translate(0,1447.6301)">
    <g
       id="g4932"
       transform="translate(-19.792619,-996.22847)">
      <ellipse
         transform="matrix(-0.90281,0,0,0.9018,1087.4,-342.03)"
         style="fill:none;stroke:#000000;stroke-width:3.92689991"
         id="path4538"
         cx="614.17273"
         cy="603.29535"
         rx="197.9899"
         ry="28.284271" />
      <ellipse
         transform="matrix(-0.79371,0,0,0.79117,1020.3,-275.28)"
         style="fill:none;stroke:#000000;stroke-width:4.47139978"
         id="path4540"
         cx="614.17273"
         cy="603.29535"
         rx="197.9899"
         ry="28.284271" />
      <path
         d="m 765.64,681 0,284.83 -464.3,0 0,-284.83 0.0568,0 c 0.11756,33.624 103.99,60.872 232.11,60.872 128.11,0 231.99,-27.247 232.11,-60.872 l 0.0283,0 z"
         inkscape:connector-curvature="0"
         style="fill:none;stroke:#000000;stroke-width:3.54329991"
         id="rect4554" />
      <ellipse
         transform="matrix(-1.1723,0,0,2.1542,1253.5,-618.68)"
         style="fill:none;stroke:#000000;stroke-width:2.22970009"
         id="path4556"
         cx="614.17273"
         cy="603.29535"
         rx="197.9899"
         ry="28.284271" />
      <path
         d="m 336.1,545.33 c 0.77601,23.318 88.839,42.187 197.41,42.187 102.71,0 187.1,-16.874 196.56,-38.439 -0.45972,61.522 0.28805,72.302 0.90283,131.87 0,23.461 -88.414,42.469 -197.46,42.469 -109.046,0 -197.43,-19.008 -197.43,-42.469 1.2186,-59.254 0,-73.417 0,-135.62 l 0.0283,0 z"
         inkscape:connector-curvature="0"
         style="fill:#ffffff;stroke:#000000;stroke-width:3.54329991"
         sodipodi:nodetypes="csccscccc"
         id="rect4542" />
      <ellipse
         transform="matrix(-0.99727,0,0,1.5019,1146,-361.38)"
         style="fill:none;stroke:#000000;stroke-width:2.89520001"
         id="path4552"
         cx="614.17273"
         cy="603.29535"
         rx="197.9899"
         ry="28.284271" />
      <path
         d="m 712.04,202.58 0,342.43 -0.45141,0 c -1.1356,13.948 -80.717,29.087 -178.73,29.087 -98.012,0 -177.57,-15.14 -178.7,-29.087 l -0.0283,0 0,-0.30999 0,-342.12 0.0564,0 c 2.0494,13.833 81.24,24.969 178.67,24.969 97.433,0 176.65,-11.135 178.7,-24.969 z"
         inkscape:connector-curvature="0"
         style="fill:#ffffff;stroke:#000000;stroke-width:3.54329991"
         sodipodi:nodetypes="cccscccccscc"
         id="path4544" />
      <path
         transform="matrix(1.2183,0,0,1.2989,-365.13,-858.77)"
         d="m 658.62,1090.2 34.345,12.122 74.751,-10.102 10.102,-246.48 -111.12,8.0812 z"
         inkscape:connector-curvature="0"
         style="color:#000000;fill:#cccccc;filter:url(#filter4862-1)"
         id="path4927" />
      <path
         d="m 684.31,203.54 0,-353.64 c 3.3989,-71.5 -60.39,-192.44 -96.085,-214.5 l -17.411,1.2883 c -11.195,2.9205 -22.039,6.0644 -32.061,10.489 -20.195,8.9164 -153.28,214.58 -158.07,240.05 -1.8589,9.8939 -1.7542,19.294 -1.3934,27.651 l 0,286.08 c 0.50801,24.859 276.82,31.804 305.02,2.5766 z"
         inkscape:connector-curvature="0"
         style="fill:#d40000;stroke:#000000;stroke-width:3.54329991"
         sodipodi:nodetypes="ccccssccc"
         id="path4699" />
      <path
         transform="matrix(1.2183,0,0,1.2781,-365.13,-278.77)"
         d="m 868.73,430.11 -2.0203,220.21 -42.426,8.0812 z"
         inkscape:connector-curvature="0"
         style="color:#000000;fill:#cccccc;filter:url(#filter4862-5)"
         id="path4868" />
      <path
         transform="matrix(1.2183,0,0,1.2781,-365.13,-835.78)"
         d="m 593.97,829.57 78.792,10.102 -20.203,256.58 -46.467,-4.0406 -6.0609,-14.142 2.0203,-248.5 z"
         inkscape:connector-curvature="0"
         style="color:#000000;fill:#666666;filter:url(#filter4862-4)"
         id="path4903" />
      <path
         transform="matrix(1.2183,0,0,1.2781,-365.13,-835.78)"
         d="m 697.01,845.73 0,232.34 34.345,-236.38 z"
         inkscape:connector-curvature="0"
         style="color:#000000;fill:#666666;filter:url(#filter4862-54)"
         id="path4915" />
      <path
         inkscape:connector-curvature="0"
         transform="matrix(1.4284,0,0,0.51721,-512.65,152.39)"
         style="color:#000000;fill:#cccccc;filter:url(#filter4862-1)"
         d="m 658.62,1090.2 34.345,12.122 74.751,-10.102 10.102,-246.48 -111.12,8.0812 z"
         id="path4939" />
      <path
         inkscape:connector-curvature="0"
         transform="matrix(1.4284,0,0,0.51721,-517.57,355.67)"
         style="color:#000000;fill:#cccccc;filter:url(#filter4862-5)"
         d="m 868.73,430.11 -2.0203,220.21 -42.426,8.0812 z"
         id="path4941" />
      <path
         inkscape:connector-curvature="0"
         transform="matrix(1.4284,0,0,0.51721,-528.65,154.23)"
         sodipodi:nodetypes="cccc"
         d="m 697.01,845.73 0,232.34 25.73,-223.3 z"
         style="color:#000000;fill:#666666;filter:url(#filter4862-54)"
         id="path4945" />
      <path
         transform="matrix(1.4284,0,0,0.31351,-540.5,477.81)"
         inkscape:connector-curvature="0"
         sodipodi:nodetypes="cccccc"
         d="m 658.62,1090.2 34.345,12.122 91.809,0.9888 13.757,-240.93 -131.83,-8.5542 z"
         style="color:#000000;fill:#cccccc;filter:url(#filter4862-1)"
         id="path4947" />
      <path
         transform="matrix(1.408,-0.24026,0.052851,0.30903,-504.71,787.73)"
         d="m 868.73,430.11 -2.0203,220.21 -42.426,8.0812 z"
         inkscape:connector-curvature="0"
         style="color:#000000;fill:#cccccc;filter:url(#filter4862-5)"
         id="path4949" />
      <path
         transform="matrix(1.4284,0,0,0.31351,-544.31,477.19)"
         inkscape:connector-curvature="0"
         sodipodi:nodetypes="cccc"
         d="m 697.01,845.73 0,232.34 25.73,-223.3 z"
         style="color:#000000;fill:#666666;filter:url(#filter4862-54)"
         id="path4953" />
      <path
         sodipodi:nodetypes="cccccsccc"
         d="m 765.64,766.63 -0.36986,1132.0193 c -172.17767,79.5932 -351.81722,77.1059 -464.3,0 L 301.34,766.63 l 0.0568,0 c 0.11756,33.624 103.99,60.872 232.11,60.872 128.11,0 231.99,-27.247 232.11,-60.872 l 0.0283,0 z"
         inkscape:connector-curvature="0"
         style="fill:#000000;stroke:#000000;stroke-width:3.54329991"
         id="rect4686" />
      <path
         inkscape:connector-curvature="0"
         transform="matrix(-1.2183,0,0,1.2781,1472.2,-255.14)"
         sodipodi:nodetypes="ccccccc"
         d="m 593.97,829.57 61.649,25.064 -9.18501,825.4446 -46.467,-4.0406 0.0639,-597.9666 2.0203,-248.5 z"
         style="color:#000000;fill:#666666;filter:url(#filter4973)"
         id="path4955" />
      <path
         sodipodi:nodetypes="cccccccc"
         transform="matrix(1.2183,0,0,1.2169,-93.626,-254.7)"
         d="m 358.99,887.71 16.162,58.589 -11.133,824.0287 189.84518,34.6762 -7.99558,-796.078 -25.254,-69.701 -85.863,-41.416 z"
         inkscape:connector-curvature="0"
         style="color:#000000;fill:#1a1a1a;filter:url(#filter4973-3)"
         id="path4977" />
      <rect
         x="868.15002"
         y="1246.7"
         width="13.458984"
         height="1057.9091"
         transform="matrix(0.85619,-0.51666,0,1,0,0)"
         style="color:#000000;fill:url(#linearGradient5010)"
         id="rect5002" />
      <path
         transform="translate(0,-435.83)"
         d="m 592.86,98.189 c 47.14,62.861 68.57,111.43 71.43,142.86 2.85,31.42 -14.29,351.42 -14.29,351.42 z"
         inkscape:connector-curvature="0"
         style="fill:#ff2a2a;filter:url(#filter3840)"
         id="path3070" />
    </g>
  </g>
  <metadata
     id="metadata4390">
    <rdf:RDF>
      <cc:Work>
        <dc:format>image/svg+xml</dc:format>
        <dc:type
           rdf:resource="http://purl.org/dc/dcmitype/StillImage" />
        <cc:license
           rdf:resource="http://creativecommons.org/publicdomain/zero/1.0/" />
        <dc:publisher>
          <cc:Agent
             rdf:about="http://openclipart.org/">
            <dc:title>Openclipart</dc:title>
          </cc:Agent>
        </dc:publisher>
        <dc:title>Lipstick</dc:title>
        <dc:date>2012-09-17T17:21:08</dc:date>
        <dc:description>A red lipstick drawing made with inkscape.</dc:description>
        <dc:source>https://openclipart.org/detail/172385/lipstick-by-th3pr0ph3t-172385</dc:source>
        <dc:creator>
          <cc:Agent>
            <dc:title>th3pr0ph3t</dc:title>
          </cc:Agent>
        </dc:creator>
        <dc:subject>
          <rdf:Bag>
            <rdf:li>labial</rdf:li>
            <rdf:li>lapiz</rdf:li>
            <rdf:li>lips</rdf:li>
            <rdf:li>make up</rdf:li>
            <rdf:li>make-up</rdf:li>
            <rdf:li>makeup</rdf:li>
            <rdf:li>red</rdf:li>
            <rdf:li>rouge</rdf:li>
          </rdf:Bag>
        </dc:subject>
      </cc:Work>
      <cc:License
         rdf:about="http://creativecommons.org/publicdomain/zero/1.0/">
        <cc:permits
           rdf:resource="http://creativecommons.org/ns#Reproduction" />
        <cc:permits
           rdf:resource="http://creativecommons.org/ns#Distribution" />
        <cc:permits
           rdf:resource="http://creativecommons.org/ns#DerivativeWorks" />
      </cc:License>
    </rdf:RDF>
  </metadata>
</svg>
